<svg xmlns="http://www.w3.org/2000/svg" viewBox="0 0 400 300" width="0" height="0" class="illustration styles_illustrationTablet__1DWOa"><g id="_568_analytics_team_outline" data-name="#568_analytics_team_outline"><rect x="89.94" y="78.31" width="212.39" height="147.51" rx="3.77" fill="#fff"></rect><path d="M298.57,226.82H93.72a4.78,4.78,0,0,1-4.78-4.77v-140a4.78,4.78,0,0,1,4.78-4.77H298.57a4.78,4.78,0,0,1,4.77,4.77v140A4.78,4.78,0,0,1,298.57,226.82ZM93.72,79.31a2.78,2.78,0,0,0-2.78,2.77v140a2.78,2.78,0,0,0,2.78,2.77H298.57a2.78,2.78,0,0,0,2.77-2.77v-140a2.78,2.78,0,0,0-2.77-2.77Z" fill="#093f68"></path><path d="M93.72,78.31H298.57a3.77,3.77,0,0,1,3.77,3.77V94.56a0,0,0,0,1,0,0H89.94a0,0,0,0,1,0,0V82.08A3.77,3.77,0,0,1,93.72,78.31Z" fill="#2563eb"></path><path d="M302.34,95.56H89.94a1,1,0,0,1-1-1V82.08a4.78,4.78,0,0,1,4.78-4.77H298.57a4.78,4.78,0,0,1,4.77,4.77V94.56A1,1,0,0,1,302.34,95.56Zm-211.4-2h210.4V82.08a2.78,2.78,0,0,0-2.77-2.77H93.72a2.78,2.78,0,0,0-2.78,2.77Z" fill="#093f68"></path><path d="M293.08,211.54v14H257.77v-14c0-1.41,0-2.77.16-4v0L247.7,155.56l8.67-3.3,13.37,37.33,9.74,8.35A13.59,13.59,0,0,1,293.08,211.54Z" fill="#2563eb"></path><path d="M293.08,226.51H257.77a1,1,0,0,1-1-1v-14c0-1.56.05-2.84.15-4l-10.2-51.77a1,1,0,0,1,.62-1.13l8.67-3.3a1,1,0,0,1,.78,0,1,1,0,0,1,.52.57L270.59,189l9.26,7.95a14.62,14.62,0,0,1,14.23,14.59v14A1,1,0,0,1,293.08,226.51Zm-34.31-2h33.31v-13a12.62,12.62,0,0,0-12.6-12.6,1,1,0,0,1-.65-.24l-9.74-8.35a1,1,0,0,1-.29-.42l-13-36.37-6.93,2.64,10.07,51.08a1.23,1.23,0,0,1,0,.19.49.49,0,0,1,0,.12c-.1,1.12-.15,2.41-.15,3.95Z" fill="#093f68"></path><polygon points="269.74 191.32 275.23 217.5 281.43 195.68 269.74 191.32" fill="#fff"></polygon><path d="M275.23,218.5h0a1,1,0,0,1-.94-.79l-5.49-26.19a1,1,0,0,1,.33-1,1,1,0,0,1,1-.18l11.69,4.36a1,1,0,0,1,.61,1.21l-6.2,21.83A1,1,0,0,1,275.23,218.5Zm-4.14-25.61,4.29,20.44,4.84-17Z" fill="#093f68"></path><path d="M294.27,146.05a30.26,30.26,0,0,1,12,7.93c3.88,4.47,7,10.31,5.18,16.12-2.14,6.71-5,13.28-9.39,18.8-2.47,3.11-16.68-5.19-20.19-6.68-5-2.14-10.11-4.21-15.12-6.4-3.36-1.48-4.29-2.81-3.82-6.55,1-7.82,5.09-16.54,11.64-21.17C280.07,144.2,288,143.73,294.27,146.05Z" fill="#725858"></path><path d="M300.11,190.57c-3.49,0-9.28-2.74-15.44-5.85-1.36-.69-2.54-1.29-3.22-1.58L276.26,181c-3.26-1.37-6.64-2.78-9.94-4.23-3.85-1.69-4.93-3.53-4.41-7.59,1.14-8.91,5.87-17.49,12-21.86,5.47-3.86,13.77-4.73,20.66-2.17h0A31.11,31.11,0,0,1,307,153.33c3.61,4.16,7.47,10.5,5.38,17.08-2.53,7.92-5.66,14.17-9.57,19.11A3.24,3.24,0,0,1,300.11,190.57Zm-13.8-44.92a19.57,19.57,0,0,0-11.19,3.27C269.37,153,265,161,263.9,169.39c-.41,3.19.16,4.17,3.22,5.51,3.29,1.44,6.66,2.85,9.91,4.21,1.74.73,3.47,1.45,5.2,2.19.75.32,1.89.9,3.35,1.63,3.51,1.78,14.21,7.19,15.67,5.35,3.75-4.74,6.77-10.79,9.22-18.48,1.82-5.7-1.71-11.39-5-15.16A29.45,29.45,0,0,0,293.92,147h0A22,22,0,0,0,286.31,145.65Z" fill="#093f68"></path><ellipse cx="264.97" cy="172.95" rx="5.72" ry="6.26" transform="translate(2.28 349.35) rotate(-67.02)" fill="#ffc9b0"></ellipse><path d="M265.36,179.76a7.63,7.63,0,0,1-3-.62,7.53,7.53,0,0,1-3.94-3.77,6.41,6.41,0,0,1,3.74-8.82,7.68,7.68,0,0,1,9.39,4,6.49,6.49,0,0,1,.12,5.25h0a6.48,6.48,0,0,1-3.86,3.56A7.17,7.17,0,0,1,265.36,179.76Zm-.78-11.62a5.31,5.31,0,0,0-1.77.3,4.4,4.4,0,0,0-2.59,6.1,5.55,5.55,0,0,0,2.9,2.76,5.49,5.49,0,0,0,4,.16A4.42,4.42,0,0,0,269.8,175h0a4.43,4.43,0,0,0-.09-3.63,5.53,5.53,0,0,0-2.9-2.77A5.64,5.64,0,0,0,264.58,168.14Zm6.15,7.25h0Z" fill="#093f68"></path><ellipse cx="298.54" cy="187.19" rx="5.72" ry="6.26" transform="translate(9.64 388.94) rotate(-67.02)" fill="#ffc9b0"></ellipse><path d="M298.92,194a7.69,7.69,0,0,1-3-.62,6.74,6.74,0,1,1,9.31-3.36A6.73,6.73,0,0,1,298.92,194Zm-.77-11.62a4.72,4.72,0,0,0-4.45,2.76,5.29,5.29,0,0,0,9.68,4.1h0a5,5,0,0,0-3-6.4A5.71,5.71,0,0,0,298.15,182.38Z" fill="#093f68"></path><path d="M274.63,197.32A20,20,0,0,1,264,171.05c1.67-4,2.89-8,5.55-11.5a11.1,11.1,0,0,1,3.85-3.4,5.25,5.25,0,0,1,5,.07c1.77,1.12,2.37,3.39,3.78,4.85a22.82,22.82,0,0,0,6.47,4.86c3.08,1.51,6.68,2.5,9.91,1.37,2.76-1,4.07-1.86,6,.9a7,7,0,0,1,1.11,3c.39,2.9-.59,5.8-1.59,8.56-2.28,6.22-5.38,12.75-11.31,16.28A20.16,20.16,0,0,1,274.63,197.32Z" fill="#ffc9b0"></path><path d="M282.44,199.9a21,21,0,0,1-8.2-1.66h0a21.06,21.06,0,0,1-11.15-27.58c.38-.91.74-1.83,1.11-2.75a35.52,35.52,0,0,1,4.57-9,12.05,12.05,0,0,1,4.21-3.69,6.22,6.22,0,0,1,5.92.12,8.51,8.51,0,0,1,2.64,3.11,10.35,10.35,0,0,0,1.33,1.89,21.89,21.89,0,0,0,6.19,4.66c3.58,1.75,6.65,2.2,9.14,1.32l.81-.29c2.24-.82,4.17-1.53,6.32,1.58a7.72,7.72,0,0,1,1.28,3.47c.41,3-.54,6-1.64,9-2.27,6.2-5.43,13-11.74,16.8A21.12,21.12,0,0,1,282.44,199.9Zm-6.5-43.34a5.07,5.07,0,0,0-2.11.49,10,10,0,0,0-3.47,3.11,33.5,33.5,0,0,0-4.3,8.48c-.37.94-.74,1.87-1.13,2.8a19.06,19.06,0,0,0,10.09,25h0a19.11,19.11,0,0,0,17.19-1.18c5.77-3.43,8.73-9.9,10.88-15.77,1-2.77,1.89-5.47,1.53-8.08a5.83,5.83,0,0,0-.93-2.6c-1.27-1.83-1.79-1.64-4-.83l-.84.3c-3,1.06-6.6.58-10.68-1.41a23.57,23.57,0,0,1-6.75-5.07,11.85,11.85,0,0,1-1.6-2.25,7,7,0,0,0-2-2.44A3.53,3.53,0,0,0,275.94,156.56Z" fill="#093f68"></path><path d="M282.45,183.3h-.22a9.65,9.65,0,0,1-3.22-1.36,1,1,0,0,1-.3-1.38,1,1,0,0,1,1.39-.29,8.67,8.67,0,0,0,2,1,15.51,15.51,0,0,0,.11-4.11,1,1,0,0,1,.92-1.08,1,1,0,0,1,1.08.92c.17,2.22.18,5.05-.82,6A1.41,1.41,0,0,1,282.45,183.3Z" fill="#093f68"></path><path d="M284.32,226.52a1,1,0,0,1-1-1V212.69a1,1,0,0,1,2,0v12.83A1,1,0,0,1,284.32,226.52Z" fill="#093f68"></path><path d="M256.37,152.26s-1.51-5.34-1.32-6.65.72-3.57,0-4.51-3.08-1.4-3.08-1.4-1.41-6.57-2.25-7.61-1.48-1-2,.57S249,140,249,140s-5.26,2-5.35,5.44a4.84,4.84,0,0,0,3.1,4.6l1,5.54Z" fill="#ffc9b0"></path><path d="M247.7,156.56a1,1,0,0,1-.49-.12,1,1,0,0,1-.5-.7l-.9-5a5.76,5.76,0,0,1-3.21-5.33c.09-3.17,3.49-5.18,5.14-6-.57-1.94-1.49-5.58-1-7.08.25-.74.69-1.75,1.67-1.94a2.35,2.35,0,0,1,2.06,1.06c.83,1,1.87,5.36,2.33,7.41a6.06,6.06,0,0,1,3,1.62c.89,1.14.58,3.07.32,4.62,0,.23-.07.45-.1.64a30.6,30.6,0,0,0,1.29,6.24,1,1,0,0,1-.61,1.21l-8.67,3.3A1,1,0,0,1,247.7,156.56Zm1.09-24-.15.4c-.26.8.45,4.1,1.26,6.71a1,1,0,0,1-.6,1.23c-1.29.49-4.64,2.25-4.7,4.54a3.83,3.83,0,0,0,2.43,3.63,1,1,0,0,1,.65.76l.79,4.36,6.69-2.55c-.48-1.79-1.27-5-1.1-6.18,0-.21.07-.44.11-.68.14-.85.43-2.62.08-3.07a5.64,5.64,0,0,0-2.49-1,1,1,0,0,1-.78-.77c-.65-3-1.62-6.62-2.06-7.18C248.88,132.67,248.83,132.62,248.79,132.57Z" fill="#093f68"></path><path d="M249.93,147.83a1,1,0,0,1-1-.73,2.79,2.79,0,0,1,.32-2.13,4.24,4.24,0,0,1-1.57-.68,1.71,1.71,0,0,1-.81-1.6c.15-1.66,3-3.16,4.63-3.91a1,1,0,1,1,.82,1.83,11.51,11.51,0,0,0-3.36,2.13,2.25,2.25,0,0,0,2.37-.08,1,1,0,0,1,1.39.23,1,1,0,0,1-.2,1.38c-.9.68-1.81,1.81-1.67,2.28a1,1,0,0,1-.69,1.24A.84.84,0,0,1,249.93,147.83Z" fill="#093f68"></path><circle cx="293.68" cy="180.41" r="2.02" fill="#093f68"></circle><circle cx="276.14" cy="173.51" r="2.02" fill="#093f68"></circle><path d="M300.88,177.26a2.09,2.09,0,0,1-.69-.12l-9.05-3.34a2,2,0,0,1,1.38-3.75l9.06,3.34a2,2,0,0,1-.7,3.87Z" fill="#093f68"></path><path d="M282.42,171a2,2,0,0,1-.83-.18l-8.77-4a2,2,0,1,1,1.67-3.64l8.77,4a2,2,0,0,1-.84,3.82Z" fill="#093f68"></path><path d="M284.45,188.37c-6.05,0-10.25-5.9-10.3-6a1,1,0,0,1,1.64-1.15c.2.29,5,7,11.41,4.59a1,1,0,0,1,1.29.58,1,1,0,0,1-.58,1.29A9.62,9.62,0,0,1,284.45,188.37Z" fill="#093f68"></path><path d="M177.47,211.54v14H143.54v-15a49.29,49.29,0,0,1-20.42-6.7c-8.5-5.18-12.07-16.34-12.07-16.34l8.86-4.13s4.88,5.5,8.28,8.72c6.19,5.89,18.93,6,22,5.93l13.67,0A13.59,13.59,0,0,1,177.47,211.54Z" fill="#2563eb"></path><path d="M177.47,226.52H143.54a1,1,0,0,1-1-1V211.38a49.81,49.81,0,0,1-19.94-6.75c-8.72-5.3-12.35-16.42-12.5-16.89a1,1,0,0,1,.53-1.21l8.86-4.13a1,1,0,0,1,1.17.24c0,.06,4.89,5.51,8.22,8.67,6,5.69,18.79,5.71,21.3,5.65l13.69,0a14.62,14.62,0,0,1,14.6,14.6v14A1,1,0,0,1,177.47,226.52Zm-32.93-2h31.93v-13a12.61,12.61,0,0,0-12.6-12.6l-13.67,0c-3.7.07-16.32-.13-22.7-6.2-2.79-2.65-6.51-6.75-7.84-8.23L112.3,188c1,2.62,4.58,10.85,11.34,15a48.69,48.69,0,0,0,20,6.55,1,1,0,0,1,.91,1Z" fill="#093f68"></path><rect x="154.13" y="197.56" width="6.84" height="27.96" fill="#093f68"></rect><path d="M161,226.52h-6.84a1,1,0,0,1-1-1v-28a1,1,0,0,1,1-1H161a1,1,0,0,1,1,1v28A1,1,0,0,1,161,226.52Zm-5.84-2H160v-26h-4.84Z" fill="#093f68"></path><path d="M154.36,139a6.51,6.51,0,0,1,1.76,3c3.85-3.3,9.69-3.63,14.33-1.59s8.15,6.13,10.41,10.67c2,4.06,2.49,8.74,2.54,13.22s-1.08,8.64-1,13.09c0,1.58-.15,1.89-1.71,2.12a32.45,32.45,0,0,1-4.41,0H141.52c-.47,0-7.5.29-7.57,0-.28-.95.15-2.07.19-3,.14-3.25-1-6.88-1.13-10.19-.25-5.13-1.27-9.61.84-14.43a31.07,31.07,0,0,1,9.55-12.22,11,11,0,0,1,6.06-2.64A6.8,6.8,0,0,1,154.36,139Z" fill="#725858"></path><path d="M135.84,180.66c-2.63,0-2.69-.23-2.86-.88a5.24,5.24,0,0,1,0-2.4,7.7,7.7,0,0,0,.12-.9,29.07,29.07,0,0,0-.56-5.61,41.09,41.09,0,0,1-.56-4.49c-.06-1-.14-2.06-.22-3-.33-4-.64-7.77,1.13-11.83a31.86,31.86,0,0,1,9.86-12.61,12.09,12.09,0,0,1,6.64-2.85,7.76,7.76,0,0,1,5.63,2.27h0a7.75,7.75,0,0,1,1.52,2.11,15.15,15.15,0,0,1,14.27-.9c4.43,1.94,8.3,5.9,10.91,11.13,2.26,4.55,2.6,9.68,2.64,13.65a48,48,0,0,1-.5,6.54,45.91,45.91,0,0,0-.48,6.55c0,1.9-.32,2.8-2.57,3.13a16.66,16.66,0,0,1-3.16,0c-.47,0-.94,0-1.39,0H141.52l-.81,0C138.5,180.62,136.94,180.66,135.84,180.66Zm-.94-1.43v0Zm0-.58c.94,0,2.88,0,5.78-.1l.88,0H176.3c.48,0,1,0,1.49,0a16,16,0,0,0,2.78,0,2.81,2.81,0,0,0,.83-.2,8.34,8.34,0,0,0,0-.9,47.66,47.66,0,0,1,.5-6.84,46.63,46.63,0,0,0,.48-6.27c0-3.76-.35-8.61-2.43-12.78-2.4-4.82-5.93-8.44-9.92-10.2-4.59-2-9.93-1.44-13.28,1.43a1,1,0,0,1-1,.2,1,1,0,0,1-.67-.71,5.58,5.58,0,0,0-1.49-2.53,5.86,5.86,0,0,0-4.16-1.7,10.3,10.3,0,0,0-5.5,2.44,30,30,0,0,0-9.24,11.82c-1.57,3.6-1.29,7-1,10.86.09,1,.17,2.06.22,3.12a38,38,0,0,0,.55,4.26,31,31,0,0,1,.58,6,10.8,10.8,0,0,1-.15,1.16A8.29,8.29,0,0,0,134.86,178.65Z" fill="#093f68"></path><path d="M154.13,195.34H161a0,0,0,0,1,0,0v3.93a2.9,2.9,0,0,1-2.9,2.9h-1a2.9,2.9,0,0,1-2.9-2.9v-3.93A0,0,0,0,1,154.13,195.34Z" fill="#ffc9b0"></path><path d="M158.07,203.18h-1a3.91,3.91,0,0,1-3.91-3.9v-3.94a1,1,0,0,1,1-1H161a1,1,0,0,1,1,1v3.94A3.91,3.91,0,0,1,158.07,203.18Zm-2.94-6.84v2.94a1.91,1.91,0,0,0,1.91,1.9h1a1.9,1.9,0,0,0,1.9-1.9v-2.94Z" fill="#093f68"></path><ellipse cx="139.14" cy="177.58" rx="6.26" ry="5.72" fill="#ffc9b0"></ellipse><path d="M139.14,184.31a6.74,6.74,0,1,1,7.26-6.73A7,7,0,0,1,139.14,184.31Zm0-11.45a4.75,4.75,0,1,0,5.26,4.72A5,5,0,0,0,139.14,172.86Z" fill="#093f68"></path><ellipse cx="175.61" cy="177.58" rx="6.26" ry="5.72" fill="#ffc9b0"></ellipse><path d="M175.61,184.31a6.74,6.74,0,1,1,7.25-6.73A7,7,0,0,1,175.61,184.31Zm0-11.45a4.75,4.75,0,1,0,5.25,4.72A5,5,0,0,0,175.61,172.86Z" fill="#093f68"></path><path d="M157.55,196.24a20.17,20.17,0,0,1-16.08-8.08c-4.22-5.66-4.41-12.43-3.07-19.11.64-3.2,1.63-4.35,4.33-5.62a33.5,33.5,0,0,0,8.53-6.5,19.31,19.31,0,0,1-5.35,10.31,43.13,43.13,0,0,0,10.9-2.05c3.88-1.47,7.24-4,10.53-6.52l-5.24,11.19a53.11,53.11,0,0,1,8.56-4.46c.41-.17,6.93-2.13,6.93-1.8v12.6A20,20,0,0,1,157.55,196.24Z" fill="#ffc9b0"></path><path d="M157.55,197.24a21.16,21.16,0,0,1-16.88-8.48c-3.84-5.16-4.91-11.67-3.25-19.91.68-3.41,1.83-4.89,4.88-6.32a32.78,32.78,0,0,0,8.26-6.32,1,1,0,0,1,1.69.89,20.38,20.38,0,0,1-3.91,8.88,33.66,33.66,0,0,0,8.12-1.73c3.78-1.42,7.08-3.94,10.28-6.37a1,1,0,0,1,1.23,0,1,1,0,0,1,.28,1.2l-3.85,8.22a54.86,54.86,0,0,1,5.88-2.84c.06,0,6.85-2.39,7.85-1.72a1.05,1.05,0,0,1,.46.85v12.6A21.07,21.07,0,0,1,157.55,197.24Zm-8.17-37.19a27.77,27.77,0,0,1-6.22,4.28c-2.35,1.11-3.18,1.93-3.78,4.92-1.54,7.64-.59,13.64,2.9,18.32a19,19,0,0,0,34.31-11.37V164.74c-1.71.41-5.1,1.41-5.56,1.58a52.66,52.66,0,0,0-8.39,4.38,1,1,0,0,1-1.2-.08,1,1,0,0,1-.25-1.18l3.56-7.58a33.74,33.74,0,0,1-7.58,4.26A43.74,43.74,0,0,1,146,168.24a1,1,0,0,1-1-.57,1,1,0,0,1,.2-1.13A18.43,18.43,0,0,0,149.38,160.05Z" fill="#093f68"></path><path d="M157.45,185.18a10.66,10.66,0,0,1-1.87-.16,1,1,0,0,1-.81-1.15,1,1,0,0,1,1.15-.82,8.81,8.81,0,0,0,2.25.09,16.08,16.08,0,0,0-1.5-3.83,1,1,0,0,1,1.77-.93c1,2,2.14,4.58,1.58,5.82a1.38,1.38,0,0,1-1,.81A6.81,6.81,0,0,1,157.45,185.18Z" fill="#093f68"></path><path d="M168.72,226.52a1,1,0,0,1-1-1V212.69a1,1,0,0,1,2,0v12.83A1,1,0,0,1,168.72,226.52Z" fill="#093f68"></path><circle cx="167.2" cy="178.84" r="2.02" fill="#093f68"></circle><circle cx="148.36" cy="178.84" r="2.02" fill="#093f68"></circle><path d="M162.38,173.62a2,2,0,0,1,0-4l9.65-.2a2,2,0,0,1,.09,4l-9.65.2Z" fill="#093f68"></path><path d="M152.54,174.32h-.11l-9.63-.53a2,2,0,1,1,.22-4l9.63.53a2,2,0,0,1-.11,4Z" fill="#093f68"></path><path d="M157.94,190.71a10.48,10.48,0,0,1-8.42-4.63,1,1,0,0,1,.34-1.37,1,1,0,0,1,1.37.33c.16.26,3.78,5.94,11,2.64a1,1,0,1,1,.84,1.82A12.4,12.4,0,0,1,157.94,190.71Z" fill="#093f68"></path><path d="M208,147.31s-4.56-1.6-8.88,4c-4,5.24-3.82,12.75-4,19a64.41,64.41,0,0,1-3.44,18.43c-1.82,5.69.82,11.88,5.34,15.32a23.11,23.11,0,0,0,12.33,4.2c3.64.29,7.18-.69,10.76-.28a19.13,19.13,0,0,0,19.19-9.49,12.31,12.31,0,0,0,1.83-5.24,18.8,18.8,0,0,0-.69-5.42,92.77,92.77,0,0,1-2.3-19.33,32,32,0,0,0-3.48-15.06C229.09,143.26,214.34,138.6,208,147.31Z" fill="#725858"></path><path d="M210.73,209.29c-.51,0-1,0-1.53,0-5.31-.43-9.52-1.87-12.86-4.41-5.18-3.93-7.52-10.68-5.68-16.42a62.81,62.81,0,0,0,3.39-18.16c0-.59,0-1.19,0-1.8.16-6,.33-12.76,4.19-17.76,3.72-4.81,7.67-4.77,9.28-4.5a12.58,12.58,0,0,1,11-4.42A21.8,21.8,0,0,1,235.47,153a33,33,0,0,1,3.6,15.53,91.79,91.79,0,0,0,2.27,19.11l.09.39a18.12,18.12,0,0,1,.63,5.33,13.18,13.18,0,0,1-2,5.66,20.1,20.1,0,0,1-20.17,10,27,27,0,0,0-5.37.12C213.31,209.18,212,209.29,210.73,209.29Zm-4.35-61.2c-1.46,0-4,.57-6.5,3.83-3.46,4.47-3.63,10.91-3.78,16.59,0,.61,0,1.21,0,1.81a64.73,64.73,0,0,1-3.49,18.7c-1.58,4.94.47,10.79,5,14.22,3,2.3,6.89,3.61,11.81,4a30.34,30.34,0,0,0,5-.16,28.41,28.41,0,0,1,5.77-.12,18.18,18.18,0,0,0,18.22-9,11.17,11.17,0,0,0,1.69-4.8,16.15,16.15,0,0,0-.59-4.75l-.08-.39a93.73,93.73,0,0,1-2.32-19.53,31.14,31.14,0,0,0-3.36-14.59c-3-5.56-9.31-9.73-15.32-10.13a10.52,10.52,0,0,0-9.62,4.13,1,1,0,0,1-1.13.35A4.85,4.85,0,0,0,206.38,148.09Z" fill="#093f68"></path><path d="M236.25,211.33v14.19h-40.7V211.33a13.76,13.76,0,0,1,13.77-13.77h13.15a13.75,13.75,0,0,1,11.78,6.62A13.59,13.59,0,0,1,236.25,211.33Z" fill="#2563eb"></path><path d="M236.25,226.52h-40.7a1,1,0,0,1-1-1V211.33a14.59,14.59,0,0,1,2-7.45,14.81,14.81,0,0,1,12.75-7.32h13.15a14.75,14.75,0,0,1,14.78,14.77v14.19A1,1,0,0,1,236.25,226.52Zm-39.7-2h38.7V211.33a12.76,12.76,0,0,0-12.78-12.77H209.32a12.76,12.76,0,0,0-12.77,12.77Z" fill="#093f68"></path><path d="M204.42,226.52a1,1,0,0,1-1-1v-13a1,1,0,0,1,2,0v13A1,1,0,0,1,204.42,226.52Z" fill="#093f68"></path><path d="M227.38,226.52a1,1,0,0,1-1-1v-13a1,1,0,0,1,2,0v13A1,1,0,0,1,227.38,226.52Z" fill="#093f68"></path><path d="M213.43,195.57h6.3a0,0,0,0,1,0,0v3.62a2.67,2.67,0,0,1-2.67,2.67h-1a2.67,2.67,0,0,1-2.67-2.67v-3.62A0,0,0,0,1,213.43,195.57Z" fill="#ffc9b0"></path><path d="M217.06,202.87h-.95a3.68,3.68,0,0,1-3.68-3.68v-3.62a1,1,0,0,1,1-1h6.3a1,1,0,0,1,1,1v3.62A3.68,3.68,0,0,1,217.06,202.87Zm-2.63-6.3v2.62a1.68,1.68,0,0,0,1.68,1.68h.95a1.68,1.68,0,0,0,1.67-1.68v-2.62Z" fill="#093f68"></path><ellipse cx="198.58" cy="179.21" rx="6.12" ry="5.27" fill="#ffc9b0"></ellipse><path d="M198.58,185.48c-3.93,0-7.12-2.81-7.12-6.27s3.19-6.28,7.12-6.28,7.12,2.82,7.12,6.28S202.5,185.48,198.58,185.48Zm0-10.55c-2.82,0-5.12,1.92-5.12,4.28s2.3,4.27,5.12,4.27,5.12-1.92,5.12-4.27S201.4,174.93,198.58,174.93Z" fill="#093f68"></path><ellipse cx="234.26" cy="179.21" rx="6.12" ry="5.27" fill="#ffc9b0"></ellipse><path d="M234.26,185.48c-3.93,0-7.12-2.81-7.12-6.27s3.19-6.28,7.12-6.28,7.12,2.82,7.12,6.28S238.18,185.48,234.26,185.48Zm0-10.55c-2.83,0-5.12,1.92-5.12,4.28s2.29,4.27,5.12,4.27,5.12-1.92,5.12-4.27S237.08,174.93,234.26,174.93Z" fill="#093f68"></path><path d="M227.81,163.57l-6-7.68s-1.34,4.72-2.16,7.65l-9.42,0L208,156.66l-2.62,6.84-7.3,0v14.46a18.46,18.46,0,0,0,18.46,18.45h0A18.46,18.46,0,0,0,235,177.94V163.59Z" fill="#ffc9b0"></path><path d="M216.58,197.39a19.47,19.47,0,0,1-19.46-19.45V163.48a1,1,0,0,1,.3-.71,1,1,0,0,1,.7-.29h0l6.61,0,2.36-6.2a1,1,0,0,1,1.89,0l2,6.17,7.93,0c.83-2.92,2-6.93,2-6.93a1,1,0,0,1,1.75-.34l5.68,7.3,6.74,0a1,1,0,0,1,1,1v14.35A19.47,19.47,0,0,1,216.58,197.39Zm-17.46-32.91v13.46a17.46,17.46,0,0,0,34.92,0V164.58H227.8a1,1,0,0,1-.78-.39l-4.76-6.12c-.47,1.64-1.14,4-1.63,5.75a1,1,0,0,1-1,.73h0l-9.41,0a1,1,0,0,1-.95-.69L208,159.67l-1.6,4.19a1,1,0,0,1-.94.64h0Z" fill="#093f68"></path><path d="M216.49,182a10.7,10.7,0,0,1-1.74-.15,1,1,0,0,1,.34-2,8,8,0,0,0,2,.09,15.27,15.27,0,0,0-1.37-3.43,1,1,0,0,1,1.78-.92c.95,1.83,2,4.26,1.46,5.43a1.39,1.39,0,0,1-.93.79A6.46,6.46,0,0,1,216.49,182Z" fill="#093f68"></path><rect x="195.55" y="215.57" width="8.87" height="9.95" fill="#ffc9b0"></rect><path d="M204.42,226.52h-8.87a1,1,0,0,1-1-1v-10a1,1,0,0,1,1-1h8.87a1,1,0,0,1,1,1v10A1,1,0,0,1,204.42,226.52Zm-7.87-2h6.87v-8h-6.87Z" fill="#093f68"></path><rect x="227.38" y="215.57" width="8.87" height="9.95" fill="#ffc9b0"></rect><path d="M236.25,226.52h-8.87a1,1,0,0,1-1-1v-10a1,1,0,0,1,1-1h8.87a1,1,0,0,1,1,1v10A1,1,0,0,1,236.25,226.52Zm-7.87-2h6.87v-8h-6.87Z" fill="#093f68"></path><circle cx="225.79" cy="176.24" r="2.02" fill="#093f68"></circle><circle cx="206.95" cy="176.24" r="2.02" fill="#093f68"></circle><path d="M221,171a2,2,0,0,1,0-4l9.64-.21a2,2,0,1,1,.09,4L221,171Z" fill="#093f68"></path><path d="M211.13,171.72H211l-9.63-.52a2,2,0,0,1,.22-4l9.63.53a2,2,0,0,1-.11,4Z" fill="#093f68"></path><path d="M216.43,187.7a16.58,16.58,0,0,1-8.08-2.46,1,1,0,0,1-.28-1.38,1,1,0,0,1,1.39-.29c.29.2,7.25,4.7,12.3.1a1,1,0,0,1,1.41.06,1,1,0,0,1-.06,1.42A9.67,9.67,0,0,1,216.43,187.7Z" fill="#093f68"></path><circle cx="98.31" cy="86.45" r="2.58" fill="#f56132"></circle><path d="M98.31,90a3.58,3.58,0,1,1,3.58-3.58A3.57,3.57,0,0,1,98.31,90Zm0-5.15a1.58,1.58,0,1,0,1.58,1.57A1.57,1.57,0,0,0,98.31,84.88Z" fill="#093f68"></path><circle cx="108.34" cy="86.45" r="2.58" fill="#ffbc0e"></circle><path d="M108.34,90a3.58,3.58,0,1,1,3.58-3.58A3.58,3.58,0,0,1,108.34,90Zm0-5.15a1.58,1.58,0,1,0,1.58,1.57A1.57,1.57,0,0,0,108.34,84.88Z" fill="#093f68"></path><circle cx="118.37" cy="86.45" r="2.58" fill="#70cc40"></circle><path d="M118.37,90a3.58,3.58,0,1,1,3.57-3.58A3.58,3.58,0,0,1,118.37,90Zm0-5.15a1.58,1.58,0,1,0,1.57,1.57A1.57,1.57,0,0,0,118.37,84.88Z" fill="#093f68"></path><rect x="223.39" y="71" width="92.7" height="55.53" fill="#fff"></rect><path d="M316.09,127.53h-92.7a1,1,0,0,1-1-1V71a1,1,0,0,1,1-1h92.7a1,1,0,0,1,1,1v55.53A1,1,0,0,1,316.09,127.53Zm-91.7-2h90.7V72h-90.7Z" fill="#093f68"></path><rect x="241.83" y="108.09" width="11.73" height="9.7" fill="#f56132"></rect><path d="M253.56,118.79H241.83a1,1,0,0,1-1-1v-9.7a1,1,0,0,1,1-1h11.73a1,1,0,0,1,1,1v9.7A1,1,0,0,1,253.56,118.79Zm-10.73-2h9.73v-7.7h-9.73Z" fill="#093f68"></path><rect x="264.7" y="92.55" width="11.73" height="25.24" fill="#ffbc0e"></rect><path d="M276.43,118.79H264.7a1,1,0,0,1-1-1V92.55a1,1,0,0,1,1-1h11.73a1,1,0,0,1,1,1v25.24A1,1,0,0,1,276.43,118.79Zm-10.73-2h9.73V93.55H265.7Z" fill="#093f68"></path><rect x="287.58" y="77.88" width="11.73" height="39.9" fill="#70cc40"></rect><path d="M299.3,118.79H287.58a1,1,0,0,1-1-1V77.88a1,1,0,0,1,1-1H299.3a1,1,0,0,1,1,1v39.91A1,1,0,0,1,299.3,118.79Zm-10.72-2h9.72V78.88h-9.72Z" fill="#093f68"></path><path d="M303.33,118.79H236.15a1,1,0,0,1,0-2h67.18a1,1,0,0,1,0,2Z" fill="#093f68"></path><path d="M250.05,81h-13.9a1,1,0,0,1,0-2h13.9a1,1,0,0,1,0,2Z" fill="#dfeaef"></path><polygon points="126.32 160.49 71.91 160.49 71.91 113.02 79.78 103.48 126.32 103.48 126.32 160.49" fill="#fff"></polygon><path d="M126.32,161.49H71.91a1,1,0,0,1-1-1V113a1,1,0,0,1,.23-.64L79,102.84a1,1,0,0,1,.77-.36h46.54a1,1,0,0,1,1,1v57A1,1,0,0,1,126.32,161.49Zm-53.41-2h52.41v-55H80.25l-7.34,8.9Z" fill="#093f68"></path><polygon points="71.91 113.02 79.69 113.02 79.78 103.48 71.91 113.02" fill="#fff"></polygon><path d="M79.69,114H71.91a1,1,0,0,1-.9-.58,1,1,0,0,1,.13-1.06L79,102.84a1,1,0,0,1,1.77.65L80.69,113A1,1,0,0,1,79.69,114ZM74,112H78.7l0-5.73Z" fill="#093f68"></path><circle cx="100.72" cy="131.98" r="17.94" fill="#fff"></circle><path d="M100.72,150.92A18.94,18.94,0,1,1,119.66,132,19,19,0,0,1,100.72,150.92Zm0-35.88A16.94,16.94,0,1,0,117.66,132,17,17,0,0,0,100.72,115Z" fill="#093f68"></path><path d="M100.72,132l9.11,15.46A17.94,17.94,0,1,1,118.66,132Z" fill="#70cc40"></path><path d="M100.72,150.92A18.94,18.94,0,1,1,119.66,132a1,1,0,0,1-1,1H102.47l8.22,14a1,1,0,0,1,.11.76,1,1,0,0,1-.46.61A18.92,18.92,0,0,1,100.72,150.92Zm0-35.88a16.94,16.94,0,1,0,7.73,32l-8.59-14.57a1,1,0,0,1,.86-1.51h16.91A17,17,0,0,0,100.72,115Z" fill="#093f68"></path><path d="M147.94,211.48h-4.4a1,1,0,0,1,0-2h4.4a1,1,0,0,1,0,2Z" fill="#093f68"></path><path d="M119.91,183.31s-3.47-7.14-4.17-7.23c-2.47-.33-2.17,2.84-2.17,2.84s-5.14-4.86-7.28-3.84-5.4,2.31-4.6,3.9,9.36,8.46,9.36,8.46Z" fill="#ffc9b0"></path><path d="M111.05,188.44a1,1,0,0,1-.63-.22c-2-1.64-8.79-7.13-9.63-8.79a2,2,0,0,1-.11-1.62c.51-1.45,2.53-2.4,4.49-3.31l.69-.32c2-.93,5,1.15,7,2.75a3,3,0,0,1,.73-1.17,2.69,2.69,0,0,1,2.32-.67c.55.07,1.23.16,4.94,7.78a1,1,0,0,1,0,.77,1,1,0,0,1-.52.57l-8.86,4.13A.9.9,0,0,1,111.05,188.44Zm-4-12.52a.73.73,0,0,0-.3.06l-.7.33c-.94.44-3.43,1.6-3.46,2.18.44.88,4.64,4.56,8.63,7.78l7.37-3.44a50.9,50.9,0,0,0-3.21-5.78.54.54,0,0,0-.41.15,2.52,2.52,0,0,0-.38,1.62,1,1,0,0,1-1.68.82C110.89,177.76,108.17,175.92,107,175.92Zm8.21,1Z" fill="#093f68"></path><path d="M112,183.33a1,1,0,0,1-1-.88c-.37-3,1.36-4.27,2.33-4.5a1,1,0,0,1,.5,1.93c-.13,0-1.08.42-.85,2.33a1,1,0,0,1-.87,1.11Z" fill="#093f68"></path><path d="M189.26,107.17h-48.2a1,1,0,0,1,0-2h48.2a1,1,0,0,1,0,2Z" fill="#dfeaef"></path><path d="M175.85,118.79H142.52a1,1,0,0,1,0-2h33.33a1,1,0,0,1,0,2Z" fill="#dfeaef"></path><path d="M204.42,129.76H159.18a1,1,0,0,1,0-2h45.24a1,1,0,1,1,0,2Z" fill="#dfeaef"></path><path d="M151.06,129.76h-7.52a1,1,0,1,1,0-2h7.52a1,1,0,1,1,0,2Z" fill="#dfeaef"></path><path d="M245.39,90h-9.14a1,1,0,0,1,0-2h9.14a1,1,0,0,1,0,2Z" fill="#dfeaef"></path><rect x="196.19" y="210.5" width="3.94" height="19.8" rx="1.97" transform="translate(-88.35 144.55) rotate(-33.21)" fill="#f56132"></rect><path d="M202.51,230a3.15,3.15,0,0,1-.61-.06,2.94,2.94,0,0,1-1.88-1.28l-8.69-13.27a3,3,0,0,1-.42-2.23,3,3,0,0,1,5.39-1L205,225.41a2.88,2.88,0,0,1,.42,2.23,3,3,0,0,1-2.9,2.36Zm-8.69-17.21a1,1,0,0,0-.53.16.94.94,0,0,0-.42.61.89.89,0,0,0,.14.73l8.68,13.27a1,1,0,0,0,1.35.29h0a1,1,0,0,0,.28-1.34l-8.69-13.27a1,1,0,0,0-.61-.42Z" fill="#093f68"></path><circle cx="188.74" cy="206.01" r="10.34" fill="#f56132"></circle><path d="M188.76,217.35a11.62,11.62,0,0,1-2.34-.24,11.34,11.34,0,1,1,2.34.24Zm0-20.69a9.34,9.34,0,1,0,7.84,4.23h0a9.3,9.3,0,0,0-5.91-4A9.73,9.73,0,0,0,188.72,196.66Z" fill="#093f68"></path><circle cx="188.74" cy="206.01" r="6.62" fill="#fff"></circle><path d="M188.75,213.62a7.61,7.61,0,1,1,4.16-1.24A7.61,7.61,0,0,1,188.75,213.62Zm0-13.23a5.61,5.61,0,0,0-4.69,8.69,5.62,5.62,0,1,0,9.4-6.15h0a5.59,5.59,0,0,0-3.55-2.42A5.79,5.79,0,0,0,188.73,200.39Z" fill="#093f68"></path><path d="M122.53,216.45H98.94a1,1,0,0,1-1-1V199.77a1,1,0,0,1,2,0v14.68h22.59a1,1,0,1,1,0,2Z" fill="#dfeaef"></path><path d="M102.54,212.85a1.06,1.06,0,0,1-.42-.09,1,1,0,0,1-.49-1.33c1.1-2.35,3.75-6,6.79-4.75a7.45,7.45,0,0,1,2.49,1.68c.62.6.76.74,2.19.32,2.88-.84,5.24-3.81,5.27-3.84a1,1,0,0,1,1.4-.17,1,1,0,0,1,.17,1.41c-.11.14-2.77,3.5-6.28,4.52-2.36.69-3.17.14-4.14-.8a5.37,5.37,0,0,0-1.87-1.27c-1.68-.7-3.65,2.55-4.2,3.74A1,1,0,0,1,102.54,212.85Z" fill="#dfeaef"></path><path d="M191.86,219.07a4.55,4.55,0,0,0,.15,2.28c.6,2.16,2,4.28,4.16,4.93a5,5,0,0,0,5.11-1.55,5.53,5.53,0,0,0,1-5.31c-.66-1.91-2.63-4-4.8-3.76C195.45,215.88,192.4,216.88,191.86,219.07Z" fill="#ffc9b0"></path><path d="M197.49,227.47a5.55,5.55,0,0,1-1.61-.23c-2.23-.67-4-2.78-4.83-5.63a5.55,5.55,0,0,1-.16-2.78h0c.65-2.63,3.88-3.89,6.44-4.16s5,2,5.85,4.42a6.53,6.53,0,0,1-1.14,6.29A6,6,0,0,1,197.49,227.47Zm-4.66-8.16a3.58,3.58,0,0,0,.15,1.77c.6,2.18,1.9,3.77,3.48,4.25a4,4,0,0,0,4.06-1.25,4.55,4.55,0,0,0,.77-4.34c-.56-1.62-2.2-3.25-3.75-3.08s-4.31,1-4.71,2.65Z" fill="#093f68"></path></g></svg>